<svg width="64" height="64" viewBox="0 0 64 64" fill="none" xmlns="http://www.w3.org/2000/svg">
<g clip-path="url(#clip0_84_4)">
<circle cx="32" cy="32" r="32" fill="#D9D9D9"/>
<path d="M14 43.9983L23.8063 21.9346C25.2406 18.709 27.5844 15.9803 30.5563 14.0862L44.3281 5.27201C44.6094 5.09385 44.9375 5.00008 45.2656 5.00008C46.2219 4.99071 47 5.76898 47 6.73479V6.88482C47 7.12862 46.9531 7.36304 46.8688 7.58808L41.2625 21.5783C41.0844 22.019 41 22.4878 41 22.9567C41 23.4724 41.1125 23.9881 41.3187 24.4664L50 43.9983H30.5844L31.6906 40.6789L35.4781 39.413C36.0875 39.2067 36.5 38.6347 36.5 37.9877C36.5 37.3407 36.0875 36.7687 35.4781 36.5624L31.6906 35.2966L30.425 31.5083C30.2187 30.9082 29.6469 30.4956 29 30.4956C28.3531 30.4956 27.7813 30.9082 27.575 31.5177L26.3094 35.306L22.5219 36.5718C21.9125 36.7781 21.5 37.3501 21.5 37.9971C21.5 38.6441 21.9125 39.2161 22.5219 39.4224L26.3094 40.6882L27.4156 43.9983H14ZM34.2125 18.2589C34.1094 17.9495 33.8281 17.7432 33.5 17.7432C33.1719 17.7432 32.8906 17.9495 32.7875 18.2589L32.1594 20.153L30.2656 20.7813C29.9563 20.8844 29.75 21.1657 29.75 21.4939C29.75 21.8221 29.9563 22.1034 30.2656 22.2065L32.1594 22.8348L32.7875 24.7289C32.8906 25.0383 33.1719 25.2446 33.5 25.2446C33.8281 25.2446 34.1094 25.0383 34.2125 24.7289L34.8406 22.8348L36.7344 22.2065C37.0437 22.1034 37.25 21.8221 37.25 21.4939C37.25 21.1657 37.0437 20.8844 36.7344 20.7813L34.8406 20.153L34.2125 18.2589ZM11 46.9988H53C54.6594 46.9988 56 48.3397 56 49.9994C56 51.6591 54.6594 53 53 53H11C9.34062 53 8 51.6591 8 49.9994C8 48.3397 9.34062 46.9988 11 46.9988Z" fill="#42170A"/>
</g>
<defs>
<clipPath id="clip0_84_4">
<rect width="64" height="64" fill="white"/>
</clipPath>
</defs>
</svg>
