<svg width="142" height="64" viewBox="0 0 142 64" fill="none" xmlns="http://www.w3.org/2000/svg">
<g clip-path="url(#clip0_51_9)">
<path d="M4.5 42.25L11.8547 25.7055C12.9305 23.2867 14.6883 21.2406 16.9172 19.8203L27.2461 13.2109C27.457 13.0773 27.7031 13.007 27.9492 13.007C28.6664 13 29.25 13.5836 29.25 14.3078V14.4203C29.25 14.6031 29.2148 14.7789 29.1516 14.9476L24.9469 25.4383C24.8133 25.7687 24.75 26.1203 24.75 26.4719C24.75 26.8586 24.8344 27.2453 24.9891 27.6039L31.5 42.25H16.9383L17.768 39.7609L20.6086 38.8117C21.0656 38.657 21.375 38.2281 21.375 37.743C21.375 37.2578 21.0656 36.8289 20.6086 36.6742L17.768 35.725L16.8188 32.8844C16.6641 32.4344 16.2352 32.125 15.75 32.125C15.2648 32.125 14.8359 32.4344 14.6813 32.8914L13.732 35.732L10.8914 36.6812C10.4344 36.8359 10.125 37.2648 10.125 37.75C10.125 38.2351 10.4344 38.6641 10.8914 38.8187L13.732 39.768L14.5617 42.25H4.5ZM19.6594 22.9492C19.582 22.7172 19.3711 22.5625 19.125 22.5625C18.8789 22.5625 18.668 22.7172 18.5906 22.9492L18.1195 24.3695L16.6992 24.8406C16.4672 24.918 16.3125 25.1289 16.3125 25.375C16.3125 25.6211 16.4672 25.832 16.6992 25.9094L18.1195 26.3805L18.5906 27.8008C18.668 28.0328 18.8789 28.1875 19.125 28.1875C19.3711 28.1875 19.582 28.0328 19.6594 27.8008L20.1305 26.3805L21.5508 25.9094C21.7828 25.832 21.9375 25.6211 21.9375 25.375C21.9375 25.1289 21.7828 24.918 21.5508 24.8406L20.1305 24.3695L19.6594 22.9492ZM2.25 44.5H33.75C34.9945 44.5 36 45.5055 36 46.75C36 47.9945 34.9945 49 33.75 49H2.25C1.00547 49 0 47.9945 0 46.75C0 45.5055 1.00547 44.5 2.25 44.5Z" fill="#5F2312"/>
</g>
<path d="M88.448 31.448C89 31.448 89.396 31.568 89.636 31.808C89.9 32.048 90.032 32.36 90.032 32.744C90.032 33.368 89.84 33.92 89.456 34.4C89.096 34.88 88.52 35.132 87.728 35.156C85.832 35.18 84.128 35.036 82.616 34.724C80.936 38.3 78.908 41.276 76.532 43.652C74.18 46.004 71.852 47.18 69.548 47.18C67.436 47.18 65.852 46.064 64.796 43.832C63.74 41.576 63.14 38.564 62.996 34.796C61.556 38.972 59.924 42.08 58.1 44.12C56.3 46.16 54.38 47.18 52.34 47.18C50.036 47.18 48.296 45.752 47.12 42.896C45.944 40.016 45.356 36.152 45.356 31.304C45.356 27.776 45.668 23.9 46.292 19.676C46.46 18.476 46.76 17.648 47.192 17.192C47.648 16.712 48.356 16.472 49.316 16.472C50.036 16.472 50.588 16.628 50.972 16.94C51.38 17.252 51.584 17.828 51.584 18.668C51.584 18.836 51.56 19.16 51.512 19.64C50.792 24.56 50.432 28.748 50.432 32.204C50.432 35.42 50.708 37.904 51.26 39.656C51.812 41.408 52.556 42.284 53.492 42.284C54.332 42.284 55.34 41.408 56.516 39.656C57.716 37.88 58.904 35.264 60.08 31.808C61.256 28.328 62.252 24.188 63.068 19.388C63.26 18.284 63.608 17.528 64.112 17.12C64.64 16.688 65.348 16.472 66.236 16.472C66.98 16.472 67.52 16.64 67.856 16.976C68.216 17.288 68.396 17.768 68.396 18.416C68.396 18.8 68.372 19.1 68.324 19.316C67.652 23.228 67.316 27.14 67.316 31.052C67.316 33.716 67.4 35.84 67.568 37.424C67.76 39.008 68.108 40.22 68.612 41.06C69.14 41.876 69.896 42.284 70.88 42.284C72.032 42.284 73.316 41.42 74.732 39.692C76.148 37.94 77.444 35.768 78.62 33.176C77.156 32.264 76.052 31.088 75.308 29.648C74.564 28.184 74.192 26.504 74.192 24.608C74.192 22.712 74.48 21.116 75.056 19.82C75.656 18.5 76.46 17.516 77.468 16.868C78.5 16.22 79.64 15.896 80.888 15.896C82.424 15.896 83.636 16.448 84.524 17.552C85.436 18.656 85.892 20.168 85.892 22.088C85.892 24.8 85.304 27.812 84.128 31.124C85.352 31.34 86.792 31.448 88.448 31.448ZM77.828 24.356C77.828 26.708 78.584 28.448 80.096 29.576C81.032 26.888 81.5 24.668 81.5 22.916C81.5 21.908 81.368 21.176 81.104 20.72C80.84 20.24 80.48 20 80.024 20C79.376 20 78.848 20.384 78.44 21.152C78.032 21.896 77.828 22.964 77.828 24.356ZM91.2487 27.848C90.2407 27.848 89.4847 27.62 88.9807 27.164C88.4767 26.684 88.2247 26.024 88.2247 25.184C88.2247 24.344 88.5487 23.648 89.1967 23.096C89.8687 22.52 90.6967 22.232 91.6807 22.232C92.5687 22.232 93.2887 22.448 93.8407 22.88C94.3927 23.312 94.6687 23.924 94.6687 24.716C94.6687 25.676 94.3567 26.444 93.7327 27.02C93.1087 27.572 92.2807 27.848 91.2487 27.848ZM90.9607 47.18C89.4007 47.18 88.2607 46.628 87.5407 45.524C86.8447 44.42 86.4967 42.956 86.4967 41.132C86.4967 40.052 86.6287 38.672 86.8927 36.992C87.1807 35.288 87.5407 33.704 87.9727 32.24C88.1887 31.472 88.4767 30.944 88.8367 30.656C89.1967 30.368 89.7727 30.224 90.5647 30.224C91.7887 30.224 92.4007 30.632 92.4007 31.448C92.4007 32.048 92.1727 33.44 91.7167 35.624C91.1407 38.264 90.8527 40.052 90.8527 40.988C90.8527 41.708 90.9487 42.26 91.1407 42.644C91.3327 43.028 91.6567 43.22 92.1127 43.22C92.5447 43.22 93.0847 42.92 93.7327 42.32C94.3807 41.72 95.2447 40.772 96.3247 39.476C96.6127 39.14 96.9367 38.972 97.2967 38.972C97.6087 38.972 97.8487 39.116 98.0167 39.404C98.2087 39.692 98.3047 40.088 98.3047 40.592C98.3047 41.552 98.0767 42.296 97.6207 42.824C95.2447 45.728 93.0247 47.18 90.9607 47.18ZM112.653 38.972C112.965 38.972 113.205 39.116 113.373 39.404C113.565 39.692 113.661 40.088 113.661 40.592C113.661 41.48 113.433 42.224 112.977 42.824C111.849 44.288 110.445 45.44 108.765 46.28C107.109 47.12 105.237 47.54 103.149 47.54C101.517 47.54 100.101 47.3 98.9009 46.82C97.7009 46.316 96.7769 45.644 96.1289 44.804C95.5049 43.94 95.1929 42.98 95.1929 41.924C95.1929 40.34 95.8289 38.936 97.1009 37.712C98.3729 36.488 100.197 35.312 102.573 34.184L96.6689 34.328C96.1409 34.352 95.7329 34.172 95.4449 33.788C95.1809 33.38 95.0489 32.9 95.0489 32.348C95.0489 31.772 95.1809 31.268 95.4449 30.836C95.7329 30.38 96.1169 30.152 96.5969 30.152C97.7009 30.152 99.1769 30.236 101.025 30.404C101.409 30.428 102.105 30.476 103.113 30.548C104.145 30.62 105.009 30.656 105.705 30.656C105.945 30.656 106.401 30.56 107.073 30.368C107.193 30.344 107.421 30.284 107.757 30.188C108.117 30.092 108.417 30.044 108.657 30.044C109.041 30.044 109.353 30.212 109.593 30.548C109.857 30.884 109.989 31.4 109.989 32.096C109.989 32.864 109.809 33.464 109.449 33.896C109.089 34.328 108.525 34.712 107.757 35.048C105.573 35.984 103.761 36.992 102.321 38.072C100.881 39.128 100.161 40.184 100.161 41.24C100.161 41.912 100.473 42.464 101.097 42.896C101.721 43.328 102.645 43.544 103.869 43.544C105.213 43.544 106.569 43.208 107.937 42.536C109.329 41.864 110.577 40.844 111.681 39.476C111.969 39.14 112.293 38.972 112.653 38.972ZM128.684 38.972C128.996 38.972 129.236 39.116 129.404 39.404C129.596 39.692 129.692 40.088 129.692 40.592C129.692 41.48 129.464 42.224 129.008 42.824C127.88 44.288 126.476 45.44 124.796 46.28C123.14 47.12 121.268 47.54 119.18 47.54C117.548 47.54 116.132 47.3 114.932 46.82C113.732 46.316 112.808 45.644 112.16 44.804C111.536 43.94 111.224 42.98 111.224 41.924C111.224 40.34 111.86 38.936 113.132 37.712C114.404 36.488 116.228 35.312 118.604 34.184L112.7 34.328C112.172 34.352 111.764 34.172 111.476 33.788C111.212 33.38 111.08 32.9 111.08 32.348C111.08 31.772 111.212 31.268 111.476 30.836C111.764 30.38 112.148 30.152 112.628 30.152C113.732 30.152 115.208 30.236 117.056 30.404C117.44 30.428 118.136 30.476 119.144 30.548C120.176 30.62 121.04 30.656 121.736 30.656C121.976 30.656 122.432 30.56 123.104 30.368C123.224 30.344 123.452 30.284 123.788 30.188C124.148 30.092 124.448 30.044 124.688 30.044C125.072 30.044 125.384 30.212 125.624 30.548C125.888 30.884 126.02 31.4 126.02 32.096C126.02 32.864 125.84 33.464 125.48 33.896C125.12 34.328 124.556 34.712 123.788 35.048C121.604 35.984 119.792 36.992 118.352 38.072C116.912 39.128 116.192 40.184 116.192 41.24C116.192 41.912 116.504 42.464 117.128 42.896C117.752 43.328 118.676 43.544 119.9 43.544C121.244 43.544 122.6 43.208 123.968 42.536C125.36 41.864 126.608 40.844 127.712 39.476C128 39.14 128.324 38.972 128.684 38.972ZM139.351 30.224C139.903 30.224 140.287 30.296 140.503 30.44C140.719 30.584 140.827 30.824 140.827 31.16C140.827 31.736 140.515 33.788 139.891 37.316C139.339 40.7 139.015 42.704 138.919 43.328C138.031 49.496 136.807 54.38 135.247 57.98C133.687 61.58 131.611 63.38 129.019 63.38C127.795 63.38 126.799 62.996 126.031 62.228C125.263 61.484 124.879 60.5 124.879 59.276C124.879 58.148 125.131 56.996 125.635 55.82C126.163 54.644 127.123 53.288 128.515 51.752C129.931 50.24 131.923 48.5 134.491 46.532L134.599 45.704C134.767 44.816 134.959 43.544 135.175 41.888C134.695 43.616 134.023 44.936 133.159 45.848C132.295 46.736 131.383 47.18 130.423 47.18C129.343 47.18 128.455 46.688 127.759 45.704C127.087 44.696 126.751 43.448 126.751 41.96C126.751 40.16 126.871 38.516 127.111 37.028C127.351 35.516 127.747 33.92 128.299 32.24C128.539 31.52 128.875 31.004 129.307 30.692C129.739 30.38 130.423 30.224 131.359 30.224C131.887 30.224 132.247 30.308 132.439 30.476C132.655 30.644 132.763 30.896 132.763 31.232C132.763 31.424 132.631 32.072 132.367 33.176C132.127 34.064 131.935 34.868 131.791 35.588C131.599 36.572 131.431 37.52 131.287 38.432C131.143 39.32 131.071 40.052 131.071 40.628C131.071 41.54 131.323 41.996 131.827 41.996C132.187 41.996 132.631 41.636 133.159 40.916C133.711 40.196 134.287 39.104 134.887 37.64C135.511 36.176 136.111 34.376 136.687 32.24C136.879 31.52 137.167 31.004 137.551 30.692C137.959 30.38 138.559 30.224 139.351 30.224ZM129.415 59.888C130.015 59.888 130.687 59.192 131.431 57.8C132.175 56.408 132.919 54.092 133.663 50.852C131.815 52.412 130.471 53.828 129.631 55.1C128.815 56.396 128.407 57.524 128.407 58.484C128.407 58.892 128.479 59.228 128.623 59.492C128.791 59.756 129.055 59.888 129.415 59.888Z" fill="#5F2312"/>
<defs>
<clipPath id="clip0_51_9">
<rect width="36" height="36" fill="white" transform="translate(0 13)"/>
</clipPath>
</defs>
</svg>
